<?xml version="1.0" encoding="UTF-8" standalone="no"?>
<!DOCTYPE svg PUBLIC "-//W3C//DTD SVG 1.1//EN"
 "http://www.w3.org/Graphics/SVG/1.1/DTD/svg11.dtd">
<!-- Generated by graphviz version 2.26.0 (20091210.2329)
 -->
<!-- Title: snakemake_dag Pages: 1 -->
<svg width="983pt" height="908pt"
 viewBox="0.00 0.00 983.00 908.00" xmlns="http://www.w3.org/2000/svg" xmlns:xlink="http://www.w3.org/1999/xlink">
<g id="graph1" class="graph" transform="scale(1 1) rotate(0) translate(4 904)">
<title>snakemake_dag</title>
<polygon fill="white" stroke="white" points="-4,5 -4,-904 980,-904 980,5 -4,5"/>
<!-- 0 -->
<g id="node1" class="node"><title>0</title>
<polyline fill="none" stroke="#d8b456" stroke-width="2" points="401,-36 371,-36 "/>
<path fill="none" stroke="#d8b456" stroke-width="2" d="M371,-36C365,-36 359,-30 359,-24"/>
<polyline fill="none" stroke="#d8b456" stroke-width="2" points="359,-24 359,-12 "/>
<path fill="none" stroke="#d8b456" stroke-width="2" d="M359,-12C359,-6 365,-1.61846e-14 371,-1.46056e-14"/>
<polyline fill="none" stroke="#d8b456" stroke-width="2" points="371,-1.46056e-14 401,-6.71068e-15 "/>
<path fill="none" stroke="#d8b456" stroke-width="2" d="M401,-6.71068e-15C407,-5.1317e-15 413,-6 413,-12"/>
<polyline fill="none" stroke="#d8b456" stroke-width="2" points="413,-12 413,-24 "/>
<path fill="none" stroke="#d8b456" stroke-width="2" d="M413,-24C413,-30 407,-36 401,-36"/>
<text text-anchor="middle" x="386" y="-15.5" font-family="sans" font-size="10.00">all</text>
</g>
<!-- 1 -->
<g id="node2" class="node"><title>1</title>
<polyline fill="none" stroke="#8fd856" stroke-width="2" points="86,-108 12,-108 "/>
<path fill="none" stroke="#8fd856" stroke-width="2" d="M12,-108C6,-108 4.14483e-14,-102 3.31587e-14,-96"/>
<polyline fill="none" stroke="#8fd856" stroke-width="2" points="3.31587e-14,-96 1.65793e-14,-84 "/>
<path fill="none" stroke="#8fd856" stroke-width="2" d="M1.65793e-14,-84C8.28967e-15,-78 6,-72 12,-72"/>
<polyline fill="none" stroke="#8fd856" stroke-width="2" points="12,-72 86,-72 "/>
<path fill="none" stroke="#8fd856" stroke-width="2" d="M86,-72C92,-72 98,-78 98,-84"/>
<polyline fill="none" stroke="#8fd856" stroke-width="2" points="98,-84 98,-96 "/>
<path fill="none" stroke="#8fd856" stroke-width="2" d="M98,-96C98,-102 92,-108 86,-108"/>
<text text-anchor="middle" x="49" y="-87.5" font-family="sans" font-size="10.00">create_symlinks</text>
</g>
<!-- 1&#45;&gt;0 -->
<g id="edge14" class="edge"><title>1&#45;&gt;0</title>
<path fill="none" stroke="grey" stroke-width="2" d="M98.0756,-75.5489C102.768,-74.2967 107.466,-73.0925 112,-72 195.96,-51.7698 295.735,-33.5485 348.669,-24.3347"/>
<polygon fill="grey" stroke="grey" points="349.356,-27.768 358.612,-22.6141 348.162,-20.8705 349.356,-27.768"/>
</g>
<!-- 2 -->
<g id="node3" class="node"><title>2</title>
<polyline fill="none" stroke="#56c9d8" stroke-width="2" points="678,-180 598,-180 "/>
<path fill="none" stroke="#56c9d8" stroke-width="2" d="M598,-180C592,-180 586,-174 586,-168"/>
<polyline fill="none" stroke="#56c9d8" stroke-width="2" points="586,-168 586,-156 "/>
<path fill="none" stroke="#56c9d8" stroke-width="2" d="M586,-156C586,-150 592,-144 598,-144"/>
<polyline fill="none" stroke="#56c9d8" stroke-width="2" points="598,-144 678,-144 "/>
<path fill="none" stroke="#56c9d8" stroke-width="2" d="M678,-144C684,-144 690,-150 690,-156"/>
<polyline fill="none" stroke="#56c9d8" stroke-width="2" points="690,-156 690,-168 "/>
<path fill="none" stroke="#56c9d8" stroke-width="2" d="M690,-168C690,-174 684,-180 678,-180"/>
<text text-anchor="middle" x="638" y="-159.5" font-family="sans" font-size="10.00">alpha_rarefaction</text>
</g>
<!-- 2&#45;&gt;0 -->
<g id="edge10" class="edge"><title>2&#45;&gt;0</title>
<path fill="none" stroke="grey" stroke-width="2" d="M634.852,-143.975C630.319,-123.497 619.952,-90.5275 598,-72 571.741,-49.8381 476.697,-32.0281 423.218,-23.4892"/>
<polygon fill="grey" stroke="grey" points="423.53,-19.9955 413.109,-21.9065 422.448,-26.9113 423.53,-19.9955"/>
</g>
<!-- 3 -->
<g id="node4" class="node"><title>3</title>
<polyline fill="none" stroke="#d89c56" stroke-width="2" points="138,-180 32,-180 "/>
<path fill="none" stroke="#d89c56" stroke-width="2" d="M32,-180C26,-180 20,-174 20,-168"/>
<polyline fill="none" stroke="#d89c56" stroke-width="2" points="20,-168 20,-156 "/>
<path fill="none" stroke="#d89c56" stroke-width="2" d="M20,-156C20,-150 26,-144 32,-144"/>
<polyline fill="none" stroke="#d89c56" stroke-width="2" points="32,-144 138,-144 "/>
<path fill="none" stroke="#d89c56" stroke-width="2" d="M138,-144C144,-144 150,-150 150,-156"/>
<polyline fill="none" stroke="#d89c56" stroke-width="2" points="150,-156 150,-168 "/>
<path fill="none" stroke="#d89c56" stroke-width="2" d="M150,-168C150,-174 144,-180 138,-180"/>
<text text-anchor="middle" x="85" y="-159.5" font-family="sans" font-size="10.00">taxonomic_class_plots</text>
</g>
<!-- 3&#45;&gt;0 -->
<g id="edge2" class="edge"><title>3&#45;&gt;0</title>
<path fill="none" stroke="grey" stroke-width="2" d="M92.1751,-143.737C101.279,-123.035 118.991,-89.8556 145,-72 177.764,-49.5076 289.441,-31.2753 348.57,-22.9269"/>
<polygon fill="grey" stroke="grey" points="349.2,-26.3731 358.624,-21.5313 348.237,-19.4396 349.2,-26.3731"/>
</g>
<!-- 4 -->
<g id="node5" class="node"><title>4</title>
<polyline fill="none" stroke="#56d87b" stroke-width="2" points="935,-468 755,-468 "/>
<path fill="none" stroke="#56d87b" stroke-width="2" d="M755,-468C749,-468 743,-462 743,-456"/>
<polyline fill="none" stroke="#56d87b" stroke-width="2" points="743,-456 743,-444 "/>
<path fill="none" stroke="#56d87b" stroke-width="2" d="M743,-444C743,-438 749,-432 755,-432"/>
<polyline fill="none" stroke="#56d87b" stroke-width="2" points="755,-432 935,-432 "/>
<path fill="none" stroke="#56d87b" stroke-width="2" d="M935,-432C941,-432 947,-438 947,-444"/>
<polyline fill="none" stroke="#56d87b" stroke-width="2" points="947,-444 947,-456 "/>
<path fill="none" stroke="#56d87b" stroke-width="2" d="M947,-456C947,-462 941,-468 935,-468"/>
<text text-anchor="middle" x="845" y="-447.5" font-family="sans" font-size="10.00">import_and_demultiplex_visualization</text>
</g>
<!-- 4&#45;&gt;0 -->
<g id="edge4" class="edge"><title>4&#45;&gt;0</title>
<path fill="none" stroke="grey" stroke-width="2" d="M835.457,-431.927C822.247,-405.184 800,-353.146 800,-306 800,-306 800,-306 800,-162 800,-82.6225 525.071,-36.9887 423.298,-22.8154"/>
<polygon fill="grey" stroke="grey" points="423.546,-19.3167 413.164,-21.4287 422.597,-26.2521 423.546,-19.3167"/>
</g>
<!-- 5 -->
<g id="node6" class="node"><title>5</title>
<polyline fill="none" stroke="#d6d856" stroke-width="2" points="556,-180 460,-180 "/>
<path fill="none" stroke="#d6d856" stroke-width="2" d="M460,-180C454,-180 448,-174 448,-168"/>
<polyline fill="none" stroke="#d6d856" stroke-width="2" points="448,-168 448,-156 "/>
<path fill="none" stroke="#d6d856" stroke-width="2" d="M448,-156C448,-150 454,-144 460,-144"/>
<polyline fill="none" stroke="#d6d856" stroke-width="2" points="460,-144 556,-144 "/>
<path fill="none" stroke="#d6d856" stroke-width="2" d="M556,-144C562,-144 568,-150 568,-156"/>
<polyline fill="none" stroke="#d6d856" stroke-width="2" points="568,-156 568,-168 "/>
<path fill="none" stroke="#d6d856" stroke-width="2" d="M568,-168C568,-174 562,-180 556,-180"/>
<text text-anchor="middle" x="508" y="-159.5" font-family="sans" font-size="10.00">alpha_beta_diversity</text>
</g>
<!-- 5&#45;&gt;0 -->
<g id="edge8" class="edge"><title>5&#45;&gt;0</title>
<path fill="none" stroke="grey" stroke-width="2" d="M545.3,-143.967C559.146,-135.189 573.336,-123.203 581,-108 588.203,-93.7129 590.687,-84.7342 581,-72 561.948,-46.9554 474.058,-30.5175 423.011,-22.9058"/>
<polygon fill="grey" stroke="grey" points="423.419,-19.4283 413.02,-21.4584 422.415,-26.356 423.419,-19.4283"/>
</g>
<!-- 8 -->
<g id="node9" class="node"><title>8</title>
<polyline fill="none" stroke="#56d892" stroke-width="2" points="560,-108 426,-108 "/>
<path fill="none" stroke="#56d892" stroke-width="2" d="M426,-108C420,-108 414,-102 414,-96"/>
<polyline fill="none" stroke="#56d892" stroke-width="2" points="414,-96 414,-84 "/>
<path fill="none" stroke="#56d892" stroke-width="2" d="M414,-84C414,-78 420,-72 426,-72"/>
<polyline fill="none" stroke="#56d892" stroke-width="2" points="426,-72 560,-72 "/>
<path fill="none" stroke="#56d892" stroke-width="2" d="M560,-72C566,-72 572,-78 572,-84"/>
<polyline fill="none" stroke="#56d892" stroke-width="2" points="572,-84 572,-96 "/>
<path fill="none" stroke="#56d892" stroke-width="2" d="M572,-96C572,-102 566,-108 560,-108"/>
<text text-anchor="middle" x="493" y="-87.5" font-family="sans" font-size="10.00">alpha_diversity_visualization</text>
</g>
<!-- 5&#45;&gt;8 -->
<g id="edge44" class="edge"><title>5&#45;&gt;8</title>
<path fill="none" stroke="grey" stroke-width="2" d="M504.215,-143.831C502.611,-136.131 500.703,-126.974 498.92,-118.417"/>
<polygon fill="grey" stroke="grey" points="502.302,-117.489 496.836,-108.413 495.449,-118.917 502.302,-117.489"/>
</g>
<!-- 6 -->
<g id="node7" class="node"><title>6</title>
<polyline fill="none" stroke="#566bd8" stroke-width="2" points="308,-108 166,-108 "/>
<path fill="none" stroke="#566bd8" stroke-width="2" d="M166,-108C160,-108 154,-102 154,-96"/>
<polyline fill="none" stroke="#566bd8" stroke-width="2" points="154,-96 154,-84 "/>
<path fill="none" stroke="#566bd8" stroke-width="2" d="M154,-84C154,-78 160,-72 166,-72"/>
<polyline fill="none" stroke="#566bd8" stroke-width="2" points="166,-72 308,-72 "/>
<path fill="none" stroke="#566bd8" stroke-width="2" d="M308,-72C314,-72 320,-78 320,-84"/>
<polyline fill="none" stroke="#566bd8" stroke-width="2" points="320,-84 320,-96 "/>
<path fill="none" stroke="#566bd8" stroke-width="2" d="M320,-96C320,-102 314,-108 308,-108"/>
<text text-anchor="middle" x="237" y="-87.5" font-family="sans" font-size="10.00">taxonomic_class_visualization</text>
</g>
<!-- 6&#45;&gt;0 -->
<g id="edge18" class="edge"><title>6&#45;&gt;0</title>
<path fill="none" stroke="grey" stroke-width="2" d="M274.599,-71.8314C297.633,-60.7006 326.964,-46.5272 349.747,-35.5181"/>
<polygon fill="grey" stroke="grey" points="351.277,-38.6663 358.758,-31.164 348.231,-32.3636 351.277,-38.6663"/>
</g>
<!-- 7 -->
<g id="node8" class="node"><title>7</title>
<polyline fill="none" stroke="#56b1d8" stroke-width="2" points="455,-396 315,-396 "/>
<path fill="none" stroke="#56b1d8" stroke-width="2" d="M315,-396C309,-396 303,-390 303,-384"/>
<polyline fill="none" stroke="#56b1d8" stroke-width="2" points="303,-384 303,-372 "/>
<path fill="none" stroke="#56b1d8" stroke-width="2" d="M303,-372C303,-366 309,-360 315,-360"/>
<polyline fill="none" stroke="#56b1d8" stroke-width="2" points="315,-360 455,-360 "/>
<path fill="none" stroke="#56b1d8" stroke-width="2" d="M455,-360C461,-360 467,-366 467,-372"/>
<polyline fill="none" stroke="#56b1d8" stroke-width="2" points="467,-372 467,-384 "/>
<path fill="none" stroke="#56b1d8" stroke-width="2" d="M467,-384C467,-390 461,-396 455,-396"/>
<text text-anchor="middle" x="385" y="-375.5" font-family="sans" font-size="10.00">sequence_table_visualization</text>
</g>
<!-- 7&#45;&gt;0 -->
<g id="edge12" class="edge"><title>7&#45;&gt;0</title>
<path fill="none" stroke="grey" stroke-width="2" d="M385.207,-359.815C385.5,-332.499 386,-279.251 386,-234 386,-234 386,-234 386,-162 386,-121.876 386,-75.4631 386,-46.4177"/>
<polygon fill="grey" stroke="grey" points="389.5,-46.1853 386,-36.1854 382.5,-46.1854 389.5,-46.1853"/>
</g>
<!-- 8&#45;&gt;0 -->
<g id="edge6" class="edge"><title>8&#45;&gt;0</title>
<path fill="none" stroke="grey" stroke-width="2" d="M465.999,-71.8314C452.567,-62.7927 436.153,-51.7476 421.696,-42.0198"/>
<polygon fill="grey" stroke="grey" points="423.243,-38.8418 412.992,-36.1628 419.335,-44.6494 423.243,-38.8418"/>
</g>
<!-- 9 -->
<g id="node10" class="node"><title>9</title>
<polyline fill="none" stroke="#d88556" stroke-width="2" points="346,-180 218,-180 "/>
<path fill="none" stroke="#d88556" stroke-width="2" d="M218,-180C212,-180 206,-174 206,-168"/>
<polyline fill="none" stroke="#d88556" stroke-width="2" points="206,-168 206,-156 "/>
<path fill="none" stroke="#d88556" stroke-width="2" d="M206,-156C206,-150 212,-144 218,-144"/>
<polyline fill="none" stroke="#d88556" stroke-width="2" points="218,-144 346,-144 "/>
<path fill="none" stroke="#d88556" stroke-width="2" d="M346,-144C352,-144 358,-150 358,-156"/>
<polyline fill="none" stroke="#d88556" stroke-width="2" points="358,-156 358,-168 "/>
<path fill="none" stroke="#d88556" stroke-width="2" d="M358,-168C358,-174 352,-180 346,-180"/>
<text text-anchor="middle" x="282" y="-159.5" font-family="sans" font-size="10.00">feature_table_visualization</text>
</g>
<!-- 9&#45;&gt;0 -->
<g id="edge16" class="edge"><title>9&#45;&gt;0</title>
<path fill="none" stroke="grey" stroke-width="2" d="M299.256,-143.592C308.477,-133.414 319.792,-120.358 329,-108 344.22,-87.5738 359.562,-63.0757 370.489,-44.7996"/>
<polygon fill="grey" stroke="grey" points="373.546,-46.5071 375.628,-36.1188 367.522,-42.9414 373.546,-46.5071"/>
</g>
<!-- 10 -->
<g id="node11" class="node"><title>10</title>
<polyline fill="none" stroke="#56d8b9" stroke-width="2" points="561,-252 427,-252 "/>
<path fill="none" stroke="#56d8b9" stroke-width="2" d="M427,-252C421,-252 415,-246 415,-240"/>
<polyline fill="none" stroke="#56d8b9" stroke-width="2" points="415,-240 415,-228 "/>
<path fill="none" stroke="#56d8b9" stroke-width="2" d="M415,-228C415,-222 421,-216 427,-216"/>
<polyline fill="none" stroke="#56d8b9" stroke-width="2" points="427,-216 561,-216 "/>
<path fill="none" stroke="#56d8b9" stroke-width="2" d="M561,-216C567,-216 573,-222 573,-228"/>
<polyline fill="none" stroke="#56d8b9" stroke-width="2" points="573,-228 573,-240 "/>
<path fill="none" stroke="#56d8b9" stroke-width="2" d="M573,-240C573,-246 567,-252 561,-252"/>
<text text-anchor="middle" x="494" y="-231.5" font-family="sans" font-size="10.00">remove_zero_read_samples</text>
</g>
<!-- 10&#45;&gt;2 -->
<g id="edge22" class="edge"><title>10&#45;&gt;2</title>
<path fill="none" stroke="grey" stroke-width="2" d="M530.337,-215.831C549.34,-206.33 572.776,-194.612 592.925,-184.537"/>
<polygon fill="grey" stroke="grey" points="594.545,-187.641 601.924,-180.038 591.414,-181.38 594.545,-187.641"/>
</g>
<!-- 10&#45;&gt;3 -->
<g id="edge28" class="edge"><title>10&#45;&gt;3</title>
<path fill="none" stroke="grey" stroke-width="2" d="M414.656,-220.032C341.106,-207.085 232.463,-187.959 160.252,-175.247"/>
<polygon fill="grey" stroke="grey" points="160.768,-171.784 150.312,-173.497 159.554,-178.678 160.768,-171.784"/>
</g>
<!-- 10&#45;&gt;5 -->
<g id="edge36" class="edge"><title>10&#45;&gt;5</title>
<path fill="none" stroke="grey" stroke-width="2" d="M497.533,-215.831C499.03,-208.131 500.811,-198.974 502.475,-190.417"/>
<polygon fill="grey" stroke="grey" points="505.947,-190.897 504.42,-180.413 499.075,-189.561 505.947,-190.897"/>
</g>
<!-- 10&#45;&gt;9 -->
<g id="edge46" class="edge"><title>10&#45;&gt;9</title>
<path fill="none" stroke="grey" stroke-width="2" d="M440.777,-215.924C411.669,-206.039 375.433,-193.732 344.931,-183.373"/>
<polygon fill="grey" stroke="grey" points="345.839,-179.985 335.245,-180.083 343.588,-186.613 345.839,-179.985"/>
</g>
<!-- 11 -->
<g id="node12" class="node"><title>11</title>
<polyline fill="none" stroke="#d8c356" stroke-width="2" points="657,-252 603,-252 "/>
<path fill="none" stroke="#d8c356" stroke-width="2" d="M603,-252C597,-252 591,-246 591,-240"/>
<polyline fill="none" stroke="#d8c356" stroke-width="2" points="591,-240 591,-228 "/>
<path fill="none" stroke="#d8c356" stroke-width="2" d="M591,-228C591,-222 597,-216 603,-216"/>
<polyline fill="none" stroke="#d8c356" stroke-width="2" points="603,-216 657,-216 "/>
<path fill="none" stroke="#d8c356" stroke-width="2" d="M657,-216C663,-216 669,-222 669,-228"/>
<polyline fill="none" stroke="#d8c356" stroke-width="2" points="669,-228 669,-240 "/>
<path fill="none" stroke="#d8c356" stroke-width="2" d="M669,-240C669,-246 663,-252 657,-252"/>
<text text-anchor="middle" x="630" y="-231.5" font-family="sans" font-size="10.00">rooted_tree</text>
</g>
<!-- 11&#45;&gt;2 -->
<g id="edge24" class="edge"><title>11&#45;&gt;2</title>
<path fill="none" stroke="grey" stroke-width="2" d="M632.019,-215.831C632.874,-208.131 633.892,-198.974 634.843,-190.417"/>
<polygon fill="grey" stroke="grey" points="638.328,-190.739 635.954,-180.413 631.371,-189.966 638.328,-190.739"/>
</g>
<!-- 11&#45;&gt;5 -->
<g id="edge38" class="edge"><title>11&#45;&gt;5</title>
<path fill="none" stroke="grey" stroke-width="2" d="M599.214,-215.831C583.61,-206.622 564.476,-195.33 547.77,-185.471"/>
<polygon fill="grey" stroke="grey" points="549.167,-182.231 538.776,-180.163 545.609,-188.26 549.167,-182.231"/>
</g>
<!-- 12 -->
<g id="node13" class="node"><title>12</title>
<polyline fill="none" stroke="#56d8a2" stroke-width="2" points="490,-900 418,-900 "/>
<path fill="none" stroke="#56d8a2" stroke-width="2" d="M418,-900C412,-900 406,-894 406,-888"/>
<polyline fill="none" stroke="#56d8a2" stroke-width="2" points="406,-888 406,-876 "/>
<path fill="none" stroke="#56d8a2" stroke-width="2" d="M406,-876C406,-870 412,-864 418,-864"/>
<polyline fill="none" stroke="#56d8a2" stroke-width="2" points="418,-864 490,-864 "/>
<path fill="none" stroke="#56d8a2" stroke-width="2" d="M490,-864C496,-864 502,-870 502,-876"/>
<polyline fill="none" stroke="#56d8a2" stroke-width="2" points="502,-876 502,-888 "/>
<path fill="none" stroke="#56d8a2" stroke-width="2" d="M502,-888C502,-894 496,-900 490,-900"/>
<text text-anchor="middle" x="454" y="-879.5" font-family="sans" font-size="10.00">check_manifest</text>
</g>
<!-- 12&#45;&gt;2 -->
<g id="edge20" class="edge"><title>12&#45;&gt;2</title>
<path fill="none" stroke="grey" stroke-width="2" d="M502.081,-879.004C631.059,-869.661 975,-835.596 975,-738 975,-738 975,-738 975,-306 975,-246.931 797.714,-197.794 700.315,-175.256"/>
<polygon fill="grey" stroke="grey" points="700.815,-171.78 690.286,-172.964 699.255,-178.604 700.815,-171.78"/>
</g>
<!-- 12&#45;&gt;3 -->
<g id="edge30" class="edge"><title>12&#45;&gt;3</title>
<path fill="none" stroke="grey" stroke-width="2" d="M405.81,-874.774C300.868,-857.682 61,-810.665 61,-738 61,-738 61,-738 61,-306 61,-265.143 70.5165,-218.642 77.5645,-189.806"/>
<polygon fill="grey" stroke="grey" points="80.9796,-190.577 80.0272,-180.025 74.1915,-188.867 80.9796,-190.577"/>
</g>
<!-- 12&#45;&gt;5 -->
<g id="edge34" class="edge"><title>12&#45;&gt;5</title>
<path fill="none" stroke="grey" stroke-width="2" d="M502.343,-875.256C559.186,-866.474 649.087,-849.654 675,-828 708.589,-799.931 715,-781.773 715,-738 715,-738 715,-738 715,-522 715,-385.009 766.316,-320.722 678,-216 671.086,-207.802 621.879,-192.665 578.174,-180.499"/>
<polygon fill="grey" stroke="grey" points="578.943,-177.08 568.372,-177.794 577.081,-183.828 578.943,-177.08"/>
</g>
<!-- 12&#45;&gt;9 -->
<g id="edge48" class="edge"><title>12&#45;&gt;9</title>
<path fill="none" stroke="grey" stroke-width="2" d="M405.841,-872.456C341.911,-856.661 237,-818.481 237,-738 237,-738 237,-738 237,-378 237,-309.14 259.189,-230.479 272.405,-189.737"/>
<polygon fill="grey" stroke="grey" points="275.734,-190.818 275.553,-180.224 269.088,-188.619 275.734,-190.818"/>
</g>
<!-- 15 -->
<g id="node16" class="node"><title>15</title>
<polyline fill="none" stroke="#61d856" stroke-width="2" points="443,-540 327,-540 "/>
<path fill="none" stroke="#61d856" stroke-width="2" d="M327,-540C321,-540 315,-534 315,-528"/>
<polyline fill="none" stroke="#61d856" stroke-width="2" points="315,-528 315,-516 "/>
<path fill="none" stroke="#61d856" stroke-width="2" d="M315,-516C315,-510 321,-504 327,-504"/>
<polyline fill="none" stroke="#61d856" stroke-width="2" points="327,-504 443,-504 "/>
<path fill="none" stroke="#61d856" stroke-width="2" d="M443,-504C449,-504 455,-510 455,-516"/>
<polyline fill="none" stroke="#61d856" stroke-width="2" points="455,-516 455,-528 "/>
<path fill="none" stroke="#61d856" stroke-width="2" d="M455,-528C455,-534 449,-540 443,-540"/>
<text text-anchor="middle" x="385" y="-519.5" font-family="sans" font-size="10.00">merge_sequence_tables</text>
</g>
<!-- 12&#45;&gt;15 -->
<g id="edge60" class="edge"><title>12&#45;&gt;15</title>
<path fill="none" stroke="grey" stroke-width="2" d="M441.198,-863.88C423.846,-837.494 395,-786.36 395,-738 395,-738 395,-738 395,-666 395,-625.779 391.069,-579.391 388.137,-550.377"/>
<polygon fill="grey" stroke="grey" points="391.59,-549.741 387.072,-540.157 384.627,-550.466 391.59,-549.741"/>
</g>
<!-- 16 -->
<g id="node17" class="node"><title>16</title>
<polyline fill="none" stroke="#56d863" stroke-width="2" points="591,-540 485,-540 "/>
<path fill="none" stroke="#56d863" stroke-width="2" d="M485,-540C479,-540 473,-534 473,-528"/>
<polyline fill="none" stroke="#56d863" stroke-width="2" points="473,-528 473,-516 "/>
<path fill="none" stroke="#56d863" stroke-width="2" d="M473,-516C473,-510 479,-504 485,-504"/>
<polyline fill="none" stroke="#56d863" stroke-width="2" points="485,-504 591,-504 "/>
<path fill="none" stroke="#56d863" stroke-width="2" d="M591,-504C597,-504 603,-510 603,-516"/>
<polyline fill="none" stroke="#56d863" stroke-width="2" points="603,-516 603,-528 "/>
<path fill="none" stroke="#56d863" stroke-width="2" d="M603,-528C603,-534 597,-540 591,-540"/>
<text text-anchor="middle" x="538" y="-519.5" font-family="sans" font-size="10.00">merge_feature_tables</text>
</g>
<!-- 12&#45;&gt;16 -->
<g id="edge64" class="edge"><title>12&#45;&gt;16</title>
<path fill="none" stroke="grey" stroke-width="2" d="M454,-863.815C454,-836.498 454,-783.25 454,-738 454,-738 454,-738 454,-666 454,-623.836 461.833,-611.867 484,-576 490.469,-565.532 499.346,-555.557 508.033,-547.093"/>
<polygon fill="grey" stroke="grey" points="510.634,-549.453 515.554,-540.069 505.857,-544.337 510.634,-549.453"/>
</g>
<!-- 21 -->
<g id="node22" class="node"><title>21</title>
<polyline fill="none" stroke="#a7d856" stroke-width="2" points="654,-828 494,-828 "/>
<path fill="none" stroke="#a7d856" stroke-width="2" d="M494,-828C488,-828 482,-822 482,-816"/>
<polyline fill="none" stroke="#a7d856" stroke-width="2" points="482,-816 482,-804 "/>
<path fill="none" stroke="#a7d856" stroke-width="2" d="M482,-804C482,-798 488,-792 494,-792"/>
<polyline fill="none" stroke="#a7d856" stroke-width="2" points="494,-792 654,-792 "/>
<path fill="none" stroke="#a7d856" stroke-width="2" d="M654,-792C660,-792 666,-798 666,-804"/>
<polyline fill="none" stroke="#a7d856" stroke-width="2" points="666,-804 666,-816 "/>
<path fill="none" stroke="#a7d856" stroke-width="2" d="M666,-816C666,-822 660,-828 654,-828"/>
<text text-anchor="middle" x="574" y="-807.5" font-family="sans" font-size="10.00">create_per_sample_Q2_manifest</text>
</g>
<!-- 12&#45;&gt;21 -->
<g id="edge74" class="edge"><title>12&#45;&gt;21</title>
<path fill="none" stroke="grey" stroke-width="2" d="M484.281,-863.831C499.63,-854.622 518.45,-843.33 534.882,-833.471"/>
<polygon fill="grey" stroke="grey" points="536.954,-836.309 543.729,-828.163 533.353,-830.307 536.954,-836.309"/>
</g>
<!-- 13 -->
<g id="node14" class="node"><title>13</title>
<polyline fill="none" stroke="#d85656" stroke-width="2" points="217,-252 101,-252 "/>
<path fill="none" stroke="#d85656" stroke-width="2" d="M101,-252C95,-252 89,-246 89,-240"/>
<polyline fill="none" stroke="#d85656" stroke-width="2" points="89,-240 89,-228 "/>
<path fill="none" stroke="#d85656" stroke-width="2" d="M89,-228C89,-222 95,-216 101,-216"/>
<polyline fill="none" stroke="#d85656" stroke-width="2" points="101,-216 217,-216 "/>
<path fill="none" stroke="#d85656" stroke-width="2" d="M217,-216C223,-216 229,-222 229,-228"/>
<polyline fill="none" stroke="#d85656" stroke-width="2" points="229,-228 229,-240 "/>
<path fill="none" stroke="#d85656" stroke-width="2" d="M229,-240C229,-246 223,-252 217,-252"/>
<text text-anchor="middle" x="159" y="-231.5" font-family="sans" font-size="10.00">taxonomic_classification</text>
</g>
<!-- 13&#45;&gt;3 -->
<g id="edge26" class="edge"><title>13&#45;&gt;3</title>
<path fill="none" stroke="grey" stroke-width="2" d="M140.327,-215.831C131.475,-207.219 120.751,-196.785 111.111,-187.405"/>
<polygon fill="grey" stroke="grey" points="113.275,-184.628 103.667,-180.163 108.394,-189.645 113.275,-184.628"/>
</g>
<!-- 13&#45;&gt;6 -->
<g id="edge40" class="edge"><title>13&#45;&gt;6</title>
<path fill="none" stroke="grey" stroke-width="2" d="M165.224,-215.815C171.926,-197.2 183.467,-167.717 197,-144 202.377,-134.576 209.127,-124.873 215.542,-116.337"/>
<polygon fill="grey" stroke="grey" points="218.447,-118.3 221.782,-108.243 212.904,-114.026 218.447,-118.3"/>
</g>
<!-- 14 -->
<g id="node15" class="node"><title>14</title>
<polyline fill="none" stroke="#78d856" stroke-width="2" points="646,-684 502,-684 "/>
<path fill="none" stroke="#78d856" stroke-width="2" d="M502,-684C496,-684 490,-678 490,-672"/>
<polyline fill="none" stroke="#78d856" stroke-width="2" points="490,-672 490,-660 "/>
<path fill="none" stroke="#78d856" stroke-width="2" d="M490,-660C490,-654 496,-648 502,-648"/>
<polyline fill="none" stroke="#78d856" stroke-width="2" points="502,-648 646,-648 "/>
<path fill="none" stroke="#78d856" stroke-width="2" d="M646,-648C652,-648 658,-654 658,-660"/>
<polyline fill="none" stroke="#78d856" stroke-width="2" points="658,-660 658,-672 "/>
<path fill="none" stroke="#78d856" stroke-width="2" d="M658,-672C658,-678 652,-684 646,-684"/>
<text text-anchor="middle" x="574" y="-663.5" font-family="sans" font-size="10.00">import_fastq_and_demultiplex</text>
</g>
<!-- 14&#45;&gt;4 -->
<g id="edge32" class="edge"><title>14&#45;&gt;4</title>
<path fill="none" stroke="grey" stroke-width="2" d="M596.639,-647.955C645.16,-609.282 759.221,-518.37 814.244,-474.514"/>
<polygon fill="grey" stroke="grey" points="816.596,-477.115 822.235,-468.145 812.233,-471.641 816.596,-477.115"/>
</g>
<!-- 19 -->
<g id="node20" class="node"><title>19</title>
<polyline fill="none" stroke="#569ad8" stroke-width="2" points="571,-612 505,-612 "/>
<path fill="none" stroke="#569ad8" stroke-width="2" d="M505,-612C499,-612 493,-606 493,-600"/>
<polyline fill="none" stroke="#569ad8" stroke-width="2" points="493,-600 493,-588 "/>
<path fill="none" stroke="#569ad8" stroke-width="2" d="M493,-588C493,-582 499,-576 505,-576"/>
<polyline fill="none" stroke="#569ad8" stroke-width="2" points="505,-576 571,-576 "/>
<path fill="none" stroke="#569ad8" stroke-width="2" d="M571,-576C577,-576 583,-582 583,-588"/>
<polyline fill="none" stroke="#569ad8" stroke-width="2" points="583,-588 583,-600 "/>
<path fill="none" stroke="#569ad8" stroke-width="2" d="M583,-600C583,-606 577,-612 571,-612"/>
<text text-anchor="middle" x="538" y="-591.5" font-family="sans" font-size="10.00">dada2_denoise</text>
</g>
<!-- 14&#45;&gt;19 -->
<g id="edge70" class="edge"><title>14&#45;&gt;19</title>
<path fill="none" stroke="grey" stroke-width="2" d="M564.916,-647.831C560.939,-639.877 556.185,-630.369 551.786,-621.572"/>
<polygon fill="grey" stroke="grey" points="554.809,-619.792 547.207,-612.413 548.548,-622.923 554.809,-619.792"/>
</g>
<!-- 15&#45;&gt;7 -->
<g id="edge42" class="edge"><title>15&#45;&gt;7</title>
<path fill="none" stroke="grey" stroke-width="2" d="M385,-503.762C385,-479.201 385,-435.247 385,-406.354"/>
<polygon fill="grey" stroke="grey" points="388.5,-406.09 385,-396.09 381.5,-406.09 388.5,-406.09"/>
</g>
<!-- 15&#45;&gt;13 -->
<g id="edge54" class="edge"><title>15&#45;&gt;13</title>
<path fill="none" stroke="grey" stroke-width="2" d="M370.863,-503.984C332.179,-454.688 224.473,-317.434 179.324,-259.899"/>
<polygon fill="grey" stroke="grey" points="182.059,-257.715 173.132,-252.009 176.552,-262.037 182.059,-257.715"/>
</g>
<!-- 22 -->
<g id="node23" class="node"><title>22</title>
<polyline fill="none" stroke="#5682d8" stroke-width="2" points="675,-468 535,-468 "/>
<path fill="none" stroke="#5682d8" stroke-width="2" d="M535,-468C529,-468 523,-462 523,-456"/>
<polyline fill="none" stroke="#5682d8" stroke-width="2" points="523,-456 523,-444 "/>
<path fill="none" stroke="#5682d8" stroke-width="2" d="M523,-444C523,-438 529,-432 535,-432"/>
<polyline fill="none" stroke="#5682d8" stroke-width="2" points="535,-432 675,-432 "/>
<path fill="none" stroke="#5682d8" stroke-width="2" d="M675,-432C681,-432 687,-438 687,-444"/>
<polyline fill="none" stroke="#5682d8" stroke-width="2" points="687,-444 687,-456 "/>
<path fill="none" stroke="#5682d8" stroke-width="2" d="M687,-456C687,-462 681,-468 675,-468"/>
<text text-anchor="middle" x="605" y="-447.5" font-family="sans" font-size="10.00">build_multiple_seq_alignment</text>
</g>
<!-- 15&#45;&gt;22 -->
<g id="edge76" class="edge"><title>15&#45;&gt;22</title>
<path fill="none" stroke="grey" stroke-width="2" d="M440.231,-503.924C470.568,-493.996 508.367,-481.625 540.105,-471.238"/>
<polygon fill="grey" stroke="grey" points="541.331,-474.52 549.746,-468.083 539.153,-467.867 541.331,-474.52"/>
</g>
<!-- 16&#45;&gt;10 -->
<g id="edge50" class="edge"><title>16&#45;&gt;10</title>
<path fill="none" stroke="grey" stroke-width="2" d="M527.965,-503.562C522.899,-493.375 517.169,-480.32 514,-468 495.375,-395.587 493.171,-306.846 493.419,-262.326"/>
<polygon fill="grey" stroke="grey" points="496.919,-262.285 493.522,-252.249 489.92,-262.213 496.919,-262.285"/>
</g>
<!-- 17 -->
<g id="node18" class="node"><title>17</title>
<polyline fill="none" stroke="#56d8d0" stroke-width="2" points="651,-324 585,-324 "/>
<path fill="none" stroke="#56d8d0" stroke-width="2" d="M585,-324C579,-324 573,-318 573,-312"/>
<polyline fill="none" stroke="#56d8d0" stroke-width="2" points="573,-312 573,-300 "/>
<path fill="none" stroke="#56d8d0" stroke-width="2" d="M573,-300C573,-294 579,-288 585,-288"/>
<polyline fill="none" stroke="#56d8d0" stroke-width="2" points="585,-288 651,-288 "/>
<path fill="none" stroke="#56d8d0" stroke-width="2" d="M651,-288C657,-288 663,-294 663,-300"/>
<polyline fill="none" stroke="#56d8d0" stroke-width="2" points="663,-300 663,-312 "/>
<path fill="none" stroke="#56d8d0" stroke-width="2" d="M663,-312C663,-318 657,-324 651,-324"/>
<text text-anchor="middle" x="618" y="-303.5" font-family="sans" font-size="10.00">unrooted_tree</text>
</g>
<!-- 17&#45;&gt;11 -->
<g id="edge52" class="edge"><title>17&#45;&gt;11</title>
<path fill="none" stroke="grey" stroke-width="2" d="M621.028,-287.831C622.312,-280.131 623.838,-270.974 625.264,-262.417"/>
<polygon fill="grey" stroke="grey" points="628.739,-262.853 626.931,-252.413 621.835,-261.702 628.739,-262.853"/>
</g>
<!-- 18 -->
<g id="node19" class="node"><title>18</title>
<polyline fill="none" stroke="#bed856" stroke-width="2" points="651,-756 497,-756 "/>
<path fill="none" stroke="#bed856" stroke-width="2" d="M497,-756C491,-756 485,-750 485,-744"/>
<polyline fill="none" stroke="#bed856" stroke-width="2" points="485,-744 485,-732 "/>
<path fill="none" stroke="#bed856" stroke-width="2" d="M485,-732C485,-726 491,-720 497,-720"/>
<polyline fill="none" stroke="#bed856" stroke-width="2" points="497,-720 651,-720 "/>
<path fill="none" stroke="#bed856" stroke-width="2" d="M651,-720C657,-720 663,-726 663,-732"/>
<polyline fill="none" stroke="#bed856" stroke-width="2" points="663,-732 663,-744 "/>
<path fill="none" stroke="#bed856" stroke-width="2" d="M663,-744C663,-750 657,-756 651,-756"/>
<text text-anchor="middle" x="574" y="-735.5" font-family="sans" font-size="10.00">combine_Q2_manifest_by_runID</text>
</g>
<!-- 18&#45;&gt;14 -->
<g id="edge56" class="edge"><title>18&#45;&gt;14</title>
<path fill="none" stroke="grey" stroke-width="2" d="M574,-719.831C574,-712.131 574,-702.974 574,-694.417"/>
<polygon fill="grey" stroke="grey" points="577.5,-694.413 574,-684.413 570.5,-694.413 577.5,-694.413"/>
</g>
<!-- 19&#45;&gt;15 -->
<g id="edge58" class="edge"><title>19&#45;&gt;15</title>
<path fill="none" stroke="grey" stroke-width="2" d="M499.392,-575.831C479.111,-566.287 454.076,-554.506 432.603,-544.401"/>
<polygon fill="grey" stroke="grey" points="433.869,-541.129 423.331,-540.038 430.889,-547.463 433.869,-541.129"/>
</g>
<!-- 19&#45;&gt;16 -->
<g id="edge62" class="edge"><title>19&#45;&gt;16</title>
<path fill="none" stroke="grey" stroke-width="2" d="M538,-575.831C538,-568.131 538,-558.974 538,-550.417"/>
<polygon fill="grey" stroke="grey" points="541.5,-550.413 538,-540.413 534.5,-550.413 541.5,-550.413"/>
</g>
<!-- 20 -->
<g id="node21" class="node"><title>20</title>
<polyline fill="none" stroke="#d86e56" stroke-width="2" points="677,-396 535,-396 "/>
<path fill="none" stroke="#d86e56" stroke-width="2" d="M535,-396C529,-396 523,-390 523,-384"/>
<polyline fill="none" stroke="#d86e56" stroke-width="2" points="523,-384 523,-372 "/>
<path fill="none" stroke="#d86e56" stroke-width="2" d="M523,-372C523,-366 529,-360 535,-360"/>
<polyline fill="none" stroke="#d86e56" stroke-width="2" points="535,-360 677,-360 "/>
<path fill="none" stroke="#d86e56" stroke-width="2" d="M677,-360C683,-360 689,-366 689,-372"/>
<polyline fill="none" stroke="#d86e56" stroke-width="2" points="689,-372 689,-384 "/>
<path fill="none" stroke="#d86e56" stroke-width="2" d="M689,-384C689,-390 683,-396 677,-396"/>
<text text-anchor="middle" x="606" y="-375.5" font-family="sans" font-size="10.00">mask_multiple_seq_alignment</text>
</g>
<!-- 20&#45;&gt;17 -->
<g id="edge66" class="edge"><title>20&#45;&gt;17</title>
<path fill="none" stroke="grey" stroke-width="2" d="M609.028,-359.831C610.312,-352.131 611.838,-342.974 613.264,-334.417"/>
<polygon fill="grey" stroke="grey" points="616.739,-334.853 614.931,-324.413 609.835,-333.702 616.739,-334.853"/>
</g>
<!-- 21&#45;&gt;18 -->
<g id="edge68" class="edge"><title>21&#45;&gt;18</title>
<path fill="none" stroke="grey" stroke-width="2" d="M574,-791.831C574,-784.131 574,-774.974 574,-766.417"/>
<polygon fill="grey" stroke="grey" points="577.5,-766.413 574,-756.413 570.5,-766.413 577.5,-766.413"/>
</g>
<!-- 22&#45;&gt;20 -->
<g id="edge72" class="edge"><title>22&#45;&gt;20</title>
<path fill="none" stroke="grey" stroke-width="2" d="M605.252,-431.831C605.359,-424.131 605.486,-414.974 605.605,-406.417"/>
<polygon fill="grey" stroke="grey" points="609.105,-406.461 605.744,-396.413 602.106,-406.364 609.105,-406.461"/>
</g>
</g>
</svg>
