<?xml version="1.0" encoding="UTF-8" standalone="no"?>
<!DOCTYPE svg PUBLIC "-//W3C//DTD SVG 1.1//EN"
 "http://www.w3.org/Graphics/SVG/1.1/DTD/svg11.dtd">
<!-- Generated by graphviz version 2.26.0 (20091210.2329)
 -->
<!-- Title: snakemake_dag Pages: 1 -->
<svg width="985pt" height="692pt"
 viewBox="0.00 0.00 985.00 692.00" xmlns="http://www.w3.org/2000/svg" xmlns:xlink="http://www.w3.org/1999/xlink">
<g id="graph1" class="graph" transform="scale(1 1) rotate(0) translate(4 688)">
<title>snakemake_dag</title>
<polygon fill="white" stroke="white" points="-4,5 -4,-688 982,-688 982,5 -4,5"/>
<!-- 0 -->
<g id="node1" class="node"><title>0</title>
<polyline fill="none" stroke="#d85656" stroke-width="2" points="534,-36 504,-36 "/>
<path fill="none" stroke="#d85656" stroke-width="2" d="M504,-36C498,-36 492,-30 492,-24"/>
<polyline fill="none" stroke="#d85656" stroke-width="2" points="492,-24 492,-12 "/>
<path fill="none" stroke="#d85656" stroke-width="2" d="M492,-12C492,-6 498,-1.61846e-14 504,-1.46056e-14"/>
<polyline fill="none" stroke="#d85656" stroke-width="2" points="504,-1.46056e-14 534,-6.71068e-15 "/>
<path fill="none" stroke="#d85656" stroke-width="2" d="M534,-6.71068e-15C540,-5.1317e-15 546,-6 546,-12"/>
<polyline fill="none" stroke="#d85656" stroke-width="2" points="546,-12 546,-24 "/>
<path fill="none" stroke="#d85656" stroke-width="2" d="M546,-24C546,-30 540,-36 534,-36"/>
<text text-anchor="middle" x="519" y="-15.5" font-family="sans" font-size="10.00">all</text>
</g>
<!-- 1 -->
<g id="node2" class="node"><title>1</title>
<polyline fill="none" stroke="#56d8a9" stroke-width="2" points="86,-108 12,-108 "/>
<path fill="none" stroke="#56d8a9" stroke-width="2" d="M12,-108C6,-108 4.14483e-14,-102 3.31587e-14,-96"/>
<polyline fill="none" stroke="#56d8a9" stroke-width="2" points="3.31587e-14,-96 1.65793e-14,-84 "/>
<path fill="none" stroke="#56d8a9" stroke-width="2" d="M1.65793e-14,-84C8.28967e-15,-78 6,-72 12,-72"/>
<polyline fill="none" stroke="#56d8a9" stroke-width="2" points="12,-72 86,-72 "/>
<path fill="none" stroke="#56d8a9" stroke-width="2" d="M86,-72C92,-72 98,-78 98,-84"/>
<polyline fill="none" stroke="#56d8a9" stroke-width="2" points="98,-84 98,-96 "/>
<path fill="none" stroke="#56d8a9" stroke-width="2" d="M98,-96C98,-102 92,-108 86,-108"/>
<text text-anchor="middle" x="49" y="-87.5" font-family="sans" font-size="10.00">create_symlinks</text>
</g>
<!-- 1&#45;&gt;0 -->
<g id="edge20" class="edge"><title>1&#45;&gt;0</title>
<path fill="none" stroke="grey" stroke-width="2" d="M98.0079,-75.2472C102.714,-74.0572 107.434,-72.9499 112,-72 246.414,-44.0379 408.964,-27.5837 481.221,-21.1496"/>
<polygon fill="grey" stroke="grey" points="481.963,-24.5981 491.619,-20.2378 481.351,-17.6248 481.963,-24.5981"/>
</g>
<!-- 2 -->
<g id="node3" class="node"><title>2</title>
<polyline fill="none" stroke="#97d856" stroke-width="2" points="535,-180 429,-180 "/>
<path fill="none" stroke="#97d856" stroke-width="2" d="M429,-180C423,-180 417,-174 417,-168"/>
<polyline fill="none" stroke="#97d856" stroke-width="2" points="417,-168 417,-156 "/>
<path fill="none" stroke="#97d856" stroke-width="2" d="M417,-156C417,-150 423,-144 429,-144"/>
<polyline fill="none" stroke="#97d856" stroke-width="2" points="429,-144 535,-144 "/>
<path fill="none" stroke="#97d856" stroke-width="2" d="M535,-144C541,-144 547,-150 547,-156"/>
<polyline fill="none" stroke="#97d856" stroke-width="2" points="547,-156 547,-168 "/>
<path fill="none" stroke="#97d856" stroke-width="2" d="M547,-168C547,-174 541,-180 535,-180"/>
<text text-anchor="middle" x="482" y="-159.5" font-family="sans" font-size="10.00">taxonomic_class_plots</text>
</g>
<!-- 2&#45;&gt;0 -->
<g id="edge14" class="edge"><title>2&#45;&gt;0</title>
<path fill="none" stroke="grey" stroke-width="2" d="M520.188,-143.833C534.097,-135.093 548.29,-123.171 556,-108 566.524,-87.2918 555.069,-62.8649 542.209,-44.6881"/>
<polygon fill="grey" stroke="grey" points="544.697,-42.1753 535.873,-36.3107 539.114,-46.3978 544.697,-42.1753"/>
</g>
<!-- 3 -->
<g id="node4" class="node"><title>3</title>
<polyline fill="none" stroke="#56d892" stroke-width="2" points="535,-108 393,-108 "/>
<path fill="none" stroke="#56d892" stroke-width="2" d="M393,-108C387,-108 381,-102 381,-96"/>
<polyline fill="none" stroke="#56d892" stroke-width="2" points="381,-96 381,-84 "/>
<path fill="none" stroke="#56d892" stroke-width="2" d="M381,-84C381,-78 387,-72 393,-72"/>
<polyline fill="none" stroke="#56d892" stroke-width="2" points="393,-72 535,-72 "/>
<path fill="none" stroke="#56d892" stroke-width="2" d="M535,-72C541,-72 547,-78 547,-84"/>
<polyline fill="none" stroke="#56d892" stroke-width="2" points="547,-84 547,-96 "/>
<path fill="none" stroke="#56d892" stroke-width="2" d="M547,-96C547,-102 541,-108 535,-108"/>
<text text-anchor="middle" x="464" y="-87.5" font-family="sans" font-size="10.00">taxonomic_class_visualization</text>
</g>
<!-- 3&#45;&gt;0 -->
<g id="edge6" class="edge"><title>3&#45;&gt;0</title>
<path fill="none" stroke="grey" stroke-width="2" d="M477.879,-71.8314C484.214,-63.5386 491.838,-53.557 498.793,-44.4533"/>
<polygon fill="grey" stroke="grey" points="501.645,-46.4847 504.934,-36.4133 496.083,-42.2353 501.645,-46.4847"/>
</g>
<!-- 4 -->
<g id="node5" class="node"><title>4</title>
<polyline fill="none" stroke="#61d856" stroke-width="2" points="795,-180 699,-180 "/>
<path fill="none" stroke="#61d856" stroke-width="2" d="M699,-180C693,-180 687,-174 687,-168"/>
<polyline fill="none" stroke="#61d856" stroke-width="2" points="687,-168 687,-156 "/>
<path fill="none" stroke="#61d856" stroke-width="2" d="M687,-156C687,-150 693,-144 699,-144"/>
<polyline fill="none" stroke="#61d856" stroke-width="2" points="699,-144 795,-144 "/>
<path fill="none" stroke="#61d856" stroke-width="2" d="M795,-144C801,-144 807,-150 807,-156"/>
<polyline fill="none" stroke="#61d856" stroke-width="2" points="807,-156 807,-168 "/>
<path fill="none" stroke="#61d856" stroke-width="2" d="M807,-168C807,-174 801,-180 795,-180"/>
<text text-anchor="middle" x="747" y="-159.5" font-family="sans" font-size="10.00">alpha_beta_diversity</text>
</g>
<!-- 4&#45;&gt;0 -->
<g id="edge18" class="edge"><title>4&#45;&gt;0</title>
<path fill="none" stroke="grey" stroke-width="2" d="M718.124,-143.762C676.559,-117.511 599.917,-69.1055 554.805,-40.6137"/>
<polygon fill="grey" stroke="grey" points="556.547,-37.574 546.223,-35.1933 552.809,-43.4925 556.547,-37.574"/>
</g>
<!-- 10 -->
<g id="node11" class="node"><title>10</title>
<polyline fill="none" stroke="#d86e56" stroke-width="2" points="825,-108 691,-108 "/>
<path fill="none" stroke="#d86e56" stroke-width="2" d="M691,-108C685,-108 679,-102 679,-96"/>
<polyline fill="none" stroke="#d86e56" stroke-width="2" points="679,-96 679,-84 "/>
<path fill="none" stroke="#d86e56" stroke-width="2" d="M679,-84C679,-78 685,-72 691,-72"/>
<polyline fill="none" stroke="#d86e56" stroke-width="2" points="691,-72 825,-72 "/>
<path fill="none" stroke="#d86e56" stroke-width="2" d="M825,-72C831,-72 837,-78 837,-84"/>
<polyline fill="none" stroke="#d86e56" stroke-width="2" points="837,-84 837,-96 "/>
<path fill="none" stroke="#d86e56" stroke-width="2" d="M837,-96C837,-102 831,-108 825,-108"/>
<text text-anchor="middle" x="758" y="-87.5" font-family="sans" font-size="10.00">alpha_diversity_visualization</text>
</g>
<!-- 4&#45;&gt;10 -->
<g id="edge52" class="edge"><title>4&#45;&gt;10</title>
<path fill="none" stroke="grey" stroke-width="2" d="M749.776,-143.831C750.952,-136.131 752.351,-126.974 753.659,-118.417"/>
<polygon fill="grey" stroke="grey" points="757.136,-118.827 755.187,-108.413 750.217,-117.77 757.136,-118.827"/>
</g>
<!-- 5 -->
<g id="node6" class="node"><title>5</title>
<polyline fill="none" stroke="#c6d856" stroke-width="2" points="288,-324 166,-324 "/>
<path fill="none" stroke="#c6d856" stroke-width="2" d="M166,-324C160,-324 154,-318 154,-312"/>
<polyline fill="none" stroke="#c6d856" stroke-width="2" points="154,-312 154,-300 "/>
<path fill="none" stroke="#c6d856" stroke-width="2" d="M154,-300C154,-294 160,-288 166,-288"/>
<polyline fill="none" stroke="#c6d856" stroke-width="2" points="166,-288 288,-288 "/>
<path fill="none" stroke="#c6d856" stroke-width="2" d="M288,-288C294,-288 300,-294 300,-300"/>
<polyline fill="none" stroke="#c6d856" stroke-width="2" points="300,-300 300,-312 "/>
<path fill="none" stroke="#c6d856" stroke-width="2" d="M300,-312C300,-318 294,-324 288,-324"/>
<text text-anchor="middle" x="227" y="-303.5" font-family="sans" font-size="10.00">dada2_stats_visualization</text>
</g>
<!-- 5&#45;&gt;0 -->
<g id="edge12" class="edge"><title>5&#45;&gt;0</title>
<path fill="none" stroke="grey" stroke-width="2" d="M215.764,-287.93C190.617,-244.949 136.087,-135.484 190,-72 208.755,-49.9157 399.428,-29.344 481.623,-21.4281"/>
<polygon fill="grey" stroke="grey" points="482.16,-24.893 491.783,-20.4611 481.496,-17.9245 482.16,-24.893"/>
</g>
<!-- 6 -->
<g id="node7" class="node"><title>6</title>
<polyline fill="none" stroke="#56d87b" stroke-width="2" points="657,-180 577,-180 "/>
<path fill="none" stroke="#56d87b" stroke-width="2" d="M577,-180C571,-180 565,-174 565,-168"/>
<polyline fill="none" stroke="#56d87b" stroke-width="2" points="565,-168 565,-156 "/>
<path fill="none" stroke="#56d87b" stroke-width="2" d="M565,-156C565,-150 571,-144 577,-144"/>
<polyline fill="none" stroke="#56d87b" stroke-width="2" points="577,-144 657,-144 "/>
<path fill="none" stroke="#56d87b" stroke-width="2" d="M657,-144C663,-144 669,-150 669,-156"/>
<polyline fill="none" stroke="#56d87b" stroke-width="2" points="669,-156 669,-168 "/>
<path fill="none" stroke="#56d87b" stroke-width="2" d="M669,-168C669,-174 663,-180 657,-180"/>
<text text-anchor="middle" x="617" y="-159.5" font-family="sans" font-size="10.00">alpha_rarefaction</text>
</g>
<!-- 6&#45;&gt;0 -->
<g id="edge8" class="edge"><title>6&#45;&gt;0</title>
<path fill="none" stroke="grey" stroke-width="2" d="M610.182,-143.783C602.643,-124.88 589.372,-94.9305 573,-72 565.657,-61.7156 556.296,-51.6039 547.439,-42.9619"/>
<polygon fill="grey" stroke="grey" points="549.838,-40.4138 540.171,-36.0768 545.023,-45.4953 549.838,-40.4138"/>
</g>
<!-- 7 -->
<g id="node8" class="node"><title>7</title>
<polyline fill="none" stroke="#56d0d8" stroke-width="2" points="237,-396 57,-396 "/>
<path fill="none" stroke="#56d0d8" stroke-width="2" d="M57,-396C51,-396 45,-390 45,-384"/>
<polyline fill="none" stroke="#56d0d8" stroke-width="2" points="45,-384 45,-372 "/>
<path fill="none" stroke="#56d0d8" stroke-width="2" d="M45,-372C45,-366 51,-360 57,-360"/>
<polyline fill="none" stroke="#56d0d8" stroke-width="2" points="57,-360 237,-360 "/>
<path fill="none" stroke="#56d0d8" stroke-width="2" d="M237,-360C243,-360 249,-366 249,-372"/>
<polyline fill="none" stroke="#56d0d8" stroke-width="2" points="249,-372 249,-384 "/>
<path fill="none" stroke="#56d0d8" stroke-width="2" d="M249,-384C249,-390 243,-396 237,-396"/>
<text text-anchor="middle" x="147" y="-375.5" font-family="sans" font-size="10.00">import_and_demultiplex_visualization</text>
</g>
<!-- 7&#45;&gt;0 -->
<g id="edge4" class="edge"><title>7&#45;&gt;0</title>
<path fill="none" stroke="grey" stroke-width="2" d="M142.649,-359.938C136.498,-332.779 126,-279.729 126,-234 126,-234 126,-234 126,-162 126,-117.859 132.685,-98.4815 168,-72 217.037,-35.2295 401.624,-23.0026 481.632,-19.3751"/>
<polygon fill="grey" stroke="grey" points="481.915,-22.8663 491.754,-18.9371 481.612,-15.8728 481.915,-22.8663"/>
</g>
<!-- 8 -->
<g id="node9" class="node"><title>8</title>
<polyline fill="none" stroke="#afd856" stroke-width="2" points="351,-108 211,-108 "/>
<path fill="none" stroke="#afd856" stroke-width="2" d="M211,-108C205,-108 199,-102 199,-96"/>
<polyline fill="none" stroke="#afd856" stroke-width="2" points="199,-96 199,-84 "/>
<path fill="none" stroke="#afd856" stroke-width="2" d="M199,-84C199,-78 205,-72 211,-72"/>
<polyline fill="none" stroke="#afd856" stroke-width="2" points="211,-72 351,-72 "/>
<path fill="none" stroke="#afd856" stroke-width="2" d="M351,-72C357,-72 363,-78 363,-84"/>
<polyline fill="none" stroke="#afd856" stroke-width="2" points="363,-84 363,-96 "/>
<path fill="none" stroke="#afd856" stroke-width="2" d="M363,-96C363,-102 357,-108 351,-108"/>
<text text-anchor="middle" x="281" y="-87.5" font-family="sans" font-size="10.00">sequence_table_visualization</text>
</g>
<!-- 8&#45;&gt;0 -->
<g id="edge10" class="edge"><title>8&#45;&gt;0</title>
<path fill="none" stroke="grey" stroke-width="2" d="M340.75,-71.9243C385.054,-58.5215 444.068,-40.6686 481.807,-29.2516"/>
<polygon fill="grey" stroke="grey" points="483.3,-32.4568 491.858,-26.2111 481.273,-25.7567 483.3,-32.4568"/>
</g>
<!-- 9 -->
<g id="node10" class="node"><title>9</title>
<polyline fill="none" stroke="#78d856" stroke-width="2" points="965,-180 837,-180 "/>
<path fill="none" stroke="#78d856" stroke-width="2" d="M837,-180C831,-180 825,-174 825,-168"/>
<polyline fill="none" stroke="#78d856" stroke-width="2" points="825,-168 825,-156 "/>
<path fill="none" stroke="#78d856" stroke-width="2" d="M825,-156C825,-150 831,-144 837,-144"/>
<polyline fill="none" stroke="#78d856" stroke-width="2" points="837,-144 965,-144 "/>
<path fill="none" stroke="#78d856" stroke-width="2" d="M965,-144C971,-144 977,-150 977,-156"/>
<polyline fill="none" stroke="#78d856" stroke-width="2" points="977,-156 977,-168 "/>
<path fill="none" stroke="#78d856" stroke-width="2" d="M977,-168C977,-174 971,-180 965,-180"/>
<text text-anchor="middle" x="901" y="-159.5" font-family="sans" font-size="10.00">feature_table_visualization</text>
</g>
<!-- 9&#45;&gt;0 -->
<g id="edge16" class="edge"><title>9&#45;&gt;0</title>
<path fill="none" stroke="grey" stroke-width="2" d="M895.153,-143.873C887.413,-122.977 871.664,-89.2934 846,-72 799.116,-40.4076 631.534,-25.4984 556.176,-20.275"/>
<polygon fill="grey" stroke="grey" points="556.39,-16.7815 546.177,-19.6015 555.919,-23.7657 556.39,-16.7815"/>
</g>
<!-- 10&#45;&gt;0 -->
<g id="edge2" class="edge"><title>10&#45;&gt;0</title>
<path fill="none" stroke="grey" stroke-width="2" d="M697.999,-71.9243C653.319,-58.4643 593.741,-40.516 555.864,-29.1056"/>
<polygon fill="grey" stroke="grey" points="556.841,-25.7444 546.256,-26.2111 554.822,-32.4469 556.841,-25.7444"/>
</g>
<!-- 11 -->
<g id="node12" class="node"><title>11</title>
<polyline fill="none" stroke="#56d863" stroke-width="2" points="822,-252 688,-252 "/>
<path fill="none" stroke="#56d863" stroke-width="2" d="M688,-252C682,-252 676,-246 676,-240"/>
<polyline fill="none" stroke="#56d863" stroke-width="2" points="676,-240 676,-228 "/>
<path fill="none" stroke="#56d863" stroke-width="2" d="M676,-228C676,-222 682,-216 688,-216"/>
<polyline fill="none" stroke="#56d863" stroke-width="2" points="688,-216 822,-216 "/>
<path fill="none" stroke="#56d863" stroke-width="2" d="M822,-216C828,-216 834,-222 834,-228"/>
<polyline fill="none" stroke="#56d863" stroke-width="2" points="834,-228 834,-240 "/>
<path fill="none" stroke="#56d863" stroke-width="2" d="M834,-240C834,-246 828,-252 822,-252"/>
<text text-anchor="middle" x="755" y="-231.5" font-family="sans" font-size="10.00">remove_zero_read_samples</text>
</g>
<!-- 11&#45;&gt;2 -->
<g id="edge24" class="edge"><title>11&#45;&gt;2</title>
<path fill="none" stroke="grey" stroke-width="2" d="M686.463,-215.924C647.066,-205.534 597.528,-192.469 557.081,-181.802"/>
<polygon fill="grey" stroke="grey" points="557.834,-178.381 547.272,-179.215 556.049,-185.149 557.834,-178.381"/>
</g>
<!-- 11&#45;&gt;4 -->
<g id="edge34" class="edge"><title>11&#45;&gt;4</title>
<path fill="none" stroke="grey" stroke-width="2" d="M752.981,-215.831C752.126,-208.131 751.108,-198.974 750.157,-190.417"/>
<polygon fill="grey" stroke="grey" points="753.629,-189.966 749.046,-180.413 746.672,-190.739 753.629,-189.966"/>
</g>
<!-- 11&#45;&gt;6 -->
<g id="edge42" class="edge"><title>11&#45;&gt;6</title>
<path fill="none" stroke="grey" stroke-width="2" d="M720.177,-215.831C702.199,-206.452 680.08,-194.911 660.938,-184.924"/>
<polygon fill="grey" stroke="grey" points="662.297,-181.685 651.812,-180.163 659.059,-187.892 662.297,-181.685"/>
</g>
<!-- 11&#45;&gt;9 -->
<g id="edge50" class="edge"><title>11&#45;&gt;9</title>
<path fill="none" stroke="grey" stroke-width="2" d="M791.842,-215.831C811.108,-206.33 834.87,-194.612 855.299,-184.537"/>
<polygon fill="grey" stroke="grey" points="857.002,-187.6 864.423,-180.038 853.906,-181.322 857.002,-187.6"/>
</g>
<!-- 12 -->
<g id="node13" class="node"><title>12</title>
<polyline fill="none" stroke="#d8d356" stroke-width="2" points="684,-684 612,-684 "/>
<path fill="none" stroke="#d8d356" stroke-width="2" d="M612,-684C606,-684 600,-678 600,-672"/>
<polyline fill="none" stroke="#d8d356" stroke-width="2" points="600,-672 600,-660 "/>
<path fill="none" stroke="#d8d356" stroke-width="2" d="M600,-660C600,-654 606,-648 612,-648"/>
<polyline fill="none" stroke="#d8d356" stroke-width="2" points="612,-648 684,-648 "/>
<path fill="none" stroke="#d8d356" stroke-width="2" d="M684,-648C690,-648 696,-654 696,-660"/>
<polyline fill="none" stroke="#d8d356" stroke-width="2" points="696,-660 696,-672 "/>
<path fill="none" stroke="#d8d356" stroke-width="2" d="M696,-672C696,-678 690,-684 684,-684"/>
<text text-anchor="middle" x="648" y="-663.5" font-family="sans" font-size="10.00">check_manifest</text>
</g>
<!-- 12&#45;&gt;2 -->
<g id="edge22" class="edge"><title>12&#45;&gt;2</title>
<path fill="none" stroke="grey" stroke-width="2" d="M601.143,-647.886C553.298,-625.962 486,-584.089 486,-522 486,-522 486,-522 486,-378 486,-310.69 484.034,-231.601 482.859,-190.327"/>
<polygon fill="grey" stroke="grey" points="486.354,-190.098 482.565,-180.204 479.357,-190.301 486.354,-190.098"/>
</g>
<!-- 12&#45;&gt;4 -->
<g id="edge32" class="edge"><title>12&#45;&gt;4</title>
<path fill="none" stroke="grey" stroke-width="2" d="M696.026,-656.105C759.12,-639.975 862,-601.486 862,-522 862,-522 862,-522 862,-306 862,-265.118 867.192,-248.955 843,-216 833.532,-203.102 819.998,-192.867 806.067,-184.931"/>
<polygon fill="grey" stroke="grey" points="807.365,-181.657 796.893,-180.044 804.073,-187.835 807.365,-181.657"/>
</g>
<!-- 12&#45;&gt;6 -->
<g id="edge40" class="edge"><title>12&#45;&gt;6</title>
<path fill="none" stroke="grey" stroke-width="2" d="M648,-647.815C648,-620.498 648,-567.25 648,-522 648,-522 648,-522 648,-306 648,-265.004 635.843,-218.883 626.755,-190.133"/>
<polygon fill="grey" stroke="grey" points="630,-188.792 623.574,-180.368 623.344,-190.96 630,-188.792"/>
</g>
<!-- 12&#45;&gt;9 -->
<g id="edge48" class="edge"><title>12&#45;&gt;9</title>
<path fill="none" stroke="grey" stroke-width="2" d="M696.29,-660.285C769.462,-648.635 900,-614.842 900,-522 900,-522 900,-522 900,-306 900,-265.875 900.393,-219.462 900.686,-190.417"/>
<polygon fill="grey" stroke="grey" points="904.188,-190.221 900.793,-180.185 897.189,-190.148 904.188,-190.221"/>
</g>
<!-- 17 -->
<g id="node18" class="node"><title>17</title>
<polyline fill="none" stroke="#568ad8" stroke-width="2" points="446,-324 330,-324 "/>
<path fill="none" stroke="#568ad8" stroke-width="2" d="M330,-324C324,-324 318,-318 318,-312"/>
<polyline fill="none" stroke="#568ad8" stroke-width="2" points="318,-312 318,-300 "/>
<path fill="none" stroke="#568ad8" stroke-width="2" d="M318,-300C318,-294 324,-288 330,-288"/>
<polyline fill="none" stroke="#568ad8" stroke-width="2" points="330,-288 446,-288 "/>
<path fill="none" stroke="#568ad8" stroke-width="2" d="M446,-288C452,-288 458,-294 458,-300"/>
<polyline fill="none" stroke="#568ad8" stroke-width="2" points="458,-300 458,-312 "/>
<path fill="none" stroke="#568ad8" stroke-width="2" d="M458,-312C458,-318 452,-324 446,-324"/>
<text text-anchor="middle" x="388" y="-303.5" font-family="sans" font-size="10.00">merge_sequence_tables</text>
</g>
<!-- 12&#45;&gt;17 -->
<g id="edge66" class="edge"><title>12&#45;&gt;17</title>
<path fill="none" stroke="grey" stroke-width="2" d="M599.797,-656.682C554.056,-646.903 489.742,-630.412 472,-612 443.275,-582.189 448,-563.398 448,-522 448,-522 448,-522 448,-450 448,-406.255 424.115,-360.387 406.485,-332.489"/>
<polygon fill="grey" stroke="grey" points="409.407,-330.561 401.019,-324.088 403.539,-334.379 409.407,-330.561"/>
</g>
<!-- 18 -->
<g id="node19" class="node"><title>18</title>
<polyline fill="none" stroke="#d8a456" stroke-width="2" points="794,-324 688,-324 "/>
<path fill="none" stroke="#d8a456" stroke-width="2" d="M688,-324C682,-324 676,-318 676,-312"/>
<polyline fill="none" stroke="#d8a456" stroke-width="2" points="676,-312 676,-300 "/>
<path fill="none" stroke="#d8a456" stroke-width="2" d="M676,-300C676,-294 682,-288 688,-288"/>
<polyline fill="none" stroke="#d8a456" stroke-width="2" points="688,-288 794,-288 "/>
<path fill="none" stroke="#d8a456" stroke-width="2" d="M794,-288C800,-288 806,-294 806,-300"/>
<polyline fill="none" stroke="#d8a456" stroke-width="2" points="806,-300 806,-312 "/>
<path fill="none" stroke="#d8a456" stroke-width="2" d="M806,-312C806,-318 800,-324 794,-324"/>
<text text-anchor="middle" x="741" y="-303.5" font-family="sans" font-size="10.00">merge_feature_tables</text>
</g>
<!-- 12&#45;&gt;18 -->
<g id="edge70" class="edge"><title>12&#45;&gt;18</title>
<path fill="none" stroke="grey" stroke-width="2" d="M662.648,-647.675C682.092,-621.448 714,-570.951 714,-522 714,-522 714,-522 714,-450 714,-409.223 724.588,-363.047 732.503,-334.225"/>
<polygon fill="grey" stroke="grey" points="735.919,-335.008 735.274,-324.433 729.183,-333.102 735.919,-335.008"/>
</g>
<!-- 20 -->
<g id="node21" class="node"><title>20</title>
<polyline fill="none" stroke="#d8bc56" stroke-width="2" points="408,-612 248,-612 "/>
<path fill="none" stroke="#d8bc56" stroke-width="2" d="M248,-612C242,-612 236,-606 236,-600"/>
<polyline fill="none" stroke="#d8bc56" stroke-width="2" points="236,-600 236,-588 "/>
<path fill="none" stroke="#d8bc56" stroke-width="2" d="M236,-588C236,-582 242,-576 248,-576"/>
<polyline fill="none" stroke="#d8bc56" stroke-width="2" points="248,-576 408,-576 "/>
<path fill="none" stroke="#d8bc56" stroke-width="2" d="M408,-576C414,-576 420,-582 420,-588"/>
<polyline fill="none" stroke="#d8bc56" stroke-width="2" points="420,-588 420,-600 "/>
<path fill="none" stroke="#d8bc56" stroke-width="2" d="M420,-600C420,-606 414,-612 408,-612"/>
<text text-anchor="middle" x="328" y="-591.5" font-family="sans" font-size="10.00">create_per_sample_Q2_manifest</text>
</g>
<!-- 12&#45;&gt;20 -->
<g id="edge74" class="edge"><title>12&#45;&gt;20</title>
<path fill="none" stroke="grey" stroke-width="2" d="M599.746,-655.143C551.799,-644.355 477.11,-627.55 418.159,-614.286"/>
<polygon fill="grey" stroke="grey" points="418.619,-610.802 408.094,-612.021 417.082,-617.631 418.619,-610.802"/>
</g>
<!-- 13 -->
<g id="node14" class="node"><title>13</title>
<polyline fill="none" stroke="#56b9d8" stroke-width="2" points="442,-252 326,-252 "/>
<path fill="none" stroke="#56b9d8" stroke-width="2" d="M326,-252C320,-252 314,-246 314,-240"/>
<polyline fill="none" stroke="#56b9d8" stroke-width="2" points="314,-240 314,-228 "/>
<path fill="none" stroke="#56b9d8" stroke-width="2" d="M314,-228C314,-222 320,-216 326,-216"/>
<polyline fill="none" stroke="#56b9d8" stroke-width="2" points="326,-216 442,-216 "/>
<path fill="none" stroke="#56b9d8" stroke-width="2" d="M442,-216C448,-216 454,-222 454,-228"/>
<polyline fill="none" stroke="#56b9d8" stroke-width="2" points="454,-228 454,-240 "/>
<path fill="none" stroke="#56b9d8" stroke-width="2" d="M454,-240C454,-246 448,-252 442,-252"/>
<text text-anchor="middle" x="384" y="-231.5" font-family="sans" font-size="10.00">taxonomic_classification</text>
</g>
<!-- 13&#45;&gt;2 -->
<g id="edge26" class="edge"><title>13&#45;&gt;2</title>
<path fill="none" stroke="grey" stroke-width="2" d="M408.73,-215.831C420.916,-206.878 435.782,-195.956 448.931,-186.295"/>
<polygon fill="grey" stroke="grey" points="451.292,-188.904 457.278,-180.163 447.147,-183.263 451.292,-188.904"/>
</g>
<!-- 13&#45;&gt;3 -->
<g id="edge28" class="edge"><title>13&#45;&gt;3</title>
<path fill="none" stroke="grey" stroke-width="2" d="M385.906,-215.99C388.554,-196.991 394.627,-166.715 408,-144 414.317,-133.27 423.346,-123.266 432.315,-114.856"/>
<polygon fill="grey" stroke="grey" points="434.653,-117.46 439.774,-108.185 429.987,-112.242 434.653,-117.46"/>
</g>
<!-- 14 -->
<g id="node15" class="node"><title>14</title>
<polyline fill="none" stroke="#56d8c9" stroke-width="2" points="608,-252 522,-252 "/>
<path fill="none" stroke="#56d8c9" stroke-width="2" d="M522,-252C516,-252 510,-246 510,-240"/>
<polyline fill="none" stroke="#56d8c9" stroke-width="2" points="510,-240 510,-228 "/>
<path fill="none" stroke="#56d8c9" stroke-width="2" d="M510,-228C510,-222 516,-216 522,-216"/>
<polyline fill="none" stroke="#56d8c9" stroke-width="2" points="522,-216 608,-216 "/>
<path fill="none" stroke="#56d8c9" stroke-width="2" d="M608,-216C614,-216 620,-222 620,-228"/>
<polyline fill="none" stroke="#56d8c9" stroke-width="2" points="620,-228 620,-240 "/>
<path fill="none" stroke="#56d8c9" stroke-width="2" d="M620,-240C620,-246 614,-252 608,-252"/>
<text text-anchor="middle" x="565" y="-231.5" font-family="sans" font-size="10.00">phylogenetic_tree</text>
</g>
<!-- 14&#45;&gt;4 -->
<g id="edge30" class="edge"><title>14&#45;&gt;4</title>
<path fill="none" stroke="grey" stroke-width="2" d="M610.926,-215.831C635.592,-206.073 666.169,-193.977 692.086,-183.724"/>
<polygon fill="grey" stroke="grey" points="693.393,-186.971 701.404,-180.038 690.818,-180.462 693.393,-186.971"/>
</g>
<!-- 14&#45;&gt;6 -->
<g id="edge38" class="edge"><title>14&#45;&gt;6</title>
<path fill="none" stroke="grey" stroke-width="2" d="M578.122,-215.831C584.05,-207.623 591.173,-197.761 597.693,-188.732"/>
<polygon fill="grey" stroke="grey" points="600.684,-190.569 603.702,-180.413 595.009,-186.471 600.684,-190.569"/>
</g>
<!-- 15 -->
<g id="node16" class="node"><title>15</title>
<polyline fill="none" stroke="#5673d8" stroke-width="2" points="387,-396 321,-396 "/>
<path fill="none" stroke="#5673d8" stroke-width="2" d="M321,-396C315,-396 309,-390 309,-384"/>
<polyline fill="none" stroke="#5673d8" stroke-width="2" points="309,-384 309,-372 "/>
<path fill="none" stroke="#5673d8" stroke-width="2" d="M309,-372C309,-366 315,-360 321,-360"/>
<polyline fill="none" stroke="#5673d8" stroke-width="2" points="321,-360 387,-360 "/>
<path fill="none" stroke="#5673d8" stroke-width="2" d="M387,-360C393,-360 399,-366 399,-372"/>
<polyline fill="none" stroke="#5673d8" stroke-width="2" points="399,-372 399,-384 "/>
<path fill="none" stroke="#5673d8" stroke-width="2" d="M399,-384C399,-390 393,-396 387,-396"/>
<text text-anchor="middle" x="354" y="-375.5" font-family="sans" font-size="10.00">dada2_denoise</text>
</g>
<!-- 15&#45;&gt;5 -->
<g id="edge36" class="edge"><title>15&#45;&gt;5</title>
<path fill="none" stroke="grey" stroke-width="2" d="M321.953,-359.831C305.558,-350.537 285.421,-339.121 267.917,-329.197"/>
<polygon fill="grey" stroke="grey" points="269.463,-326.05 259.037,-324.163 266.01,-332.139 269.463,-326.05"/>
</g>
<!-- 15&#45;&gt;17 -->
<g id="edge64" class="edge"><title>15&#45;&gt;17</title>
<path fill="none" stroke="grey" stroke-width="2" d="M362.58,-359.831C366.336,-351.877 370.826,-342.369 374.98,-333.572"/>
<polygon fill="grey" stroke="grey" points="378.2,-334.95 379.305,-324.413 371.87,-331.961 378.2,-334.95"/>
</g>
<!-- 15&#45;&gt;18 -->
<g id="edge68" class="edge"><title>15&#45;&gt;18</title>
<path fill="none" stroke="grey" stroke-width="2" d="M399.151,-369.6C464.64,-357.416 586.788,-334.691 665.949,-319.963"/>
<polygon fill="grey" stroke="grey" points="666.672,-323.389 675.863,-318.119 665.391,-316.507 666.672,-323.389"/>
</g>
<!-- 16 -->
<g id="node17" class="node"><title>16</title>
<polyline fill="none" stroke="#d88556" stroke-width="2" points="400,-468 256,-468 "/>
<path fill="none" stroke="#d88556" stroke-width="2" d="M256,-468C250,-468 244,-462 244,-456"/>
<polyline fill="none" stroke="#d88556" stroke-width="2" points="244,-456 244,-444 "/>
<path fill="none" stroke="#d88556" stroke-width="2" d="M244,-444C244,-438 250,-432 256,-432"/>
<polyline fill="none" stroke="#d88556" stroke-width="2" points="256,-432 400,-432 "/>
<path fill="none" stroke="#d88556" stroke-width="2" d="M400,-432C406,-432 412,-438 412,-444"/>
<polyline fill="none" stroke="#d88556" stroke-width="2" points="412,-444 412,-456 "/>
<path fill="none" stroke="#d88556" stroke-width="2" d="M412,-456C412,-462 406,-468 400,-468"/>
<text text-anchor="middle" x="328" y="-447.5" font-family="sans" font-size="10.00">import_fastq_and_demultiplex</text>
</g>
<!-- 16&#45;&gt;7 -->
<g id="edge44" class="edge"><title>16&#45;&gt;7</title>
<path fill="none" stroke="grey" stroke-width="2" d="M282.326,-431.831C257.903,-422.116 227.653,-410.083 201.952,-399.859"/>
<polygon fill="grey" stroke="grey" points="202.931,-396.482 192.346,-396.038 200.344,-402.986 202.931,-396.482"/>
</g>
<!-- 16&#45;&gt;15 -->
<g id="edge60" class="edge"><title>16&#45;&gt;15</title>
<path fill="none" stroke="grey" stroke-width="2" d="M334.561,-431.831C337.403,-423.962 340.794,-414.571 343.942,-405.853"/>
<polygon fill="grey" stroke="grey" points="347.246,-407.008 347.351,-396.413 340.662,-404.63 347.246,-407.008"/>
</g>
<!-- 17&#45;&gt;8 -->
<g id="edge46" class="edge"><title>17&#45;&gt;8</title>
<path fill="none" stroke="grey" stroke-width="2" d="M346.043,-287.903C330.763,-279.23 314.842,-267.336 305,-252 278.812,-211.191 276.865,-152.859 278.483,-118.462"/>
<polygon fill="grey" stroke="grey" points="281.994,-118.382 279.107,-108.188 275.007,-117.957 281.994,-118.382"/>
</g>
<!-- 17&#45;&gt;13 -->
<g id="edge56" class="edge"><title>17&#45;&gt;13</title>
<path fill="none" stroke="grey" stroke-width="2" d="M386.991,-287.831C386.563,-280.131 386.054,-270.974 385.579,-262.417"/>
<polygon fill="grey" stroke="grey" points="389.072,-262.204 385.023,-252.413 382.083,-262.592 389.072,-262.204"/>
</g>
<!-- 17&#45;&gt;14 -->
<g id="edge58" class="edge"><title>17&#45;&gt;14</title>
<path fill="none" stroke="grey" stroke-width="2" d="M432.665,-287.831C456.548,-278.116 486.129,-266.083 511.263,-255.859"/>
<polygon fill="grey" stroke="grey" points="512.712,-259.048 520.657,-252.038 510.075,-252.564 512.712,-259.048"/>
</g>
<!-- 18&#45;&gt;11 -->
<g id="edge54" class="edge"><title>18&#45;&gt;11</title>
<path fill="none" stroke="grey" stroke-width="2" d="M744.533,-287.831C746.03,-280.131 747.811,-270.974 749.475,-262.417"/>
<polygon fill="grey" stroke="grey" points="752.947,-262.897 751.42,-252.413 746.075,-261.561 752.947,-262.897"/>
</g>
<!-- 19 -->
<g id="node20" class="node"><title>19</title>
<polyline fill="none" stroke="#56a2d8" stroke-width="2" points="405,-540 251,-540 "/>
<path fill="none" stroke="#56a2d8" stroke-width="2" d="M251,-540C245,-540 239,-534 239,-528"/>
<polyline fill="none" stroke="#56a2d8" stroke-width="2" points="239,-528 239,-516 "/>
<path fill="none" stroke="#56a2d8" stroke-width="2" d="M239,-516C239,-510 245,-504 251,-504"/>
<polyline fill="none" stroke="#56a2d8" stroke-width="2" points="251,-504 405,-504 "/>
<path fill="none" stroke="#56a2d8" stroke-width="2" d="M405,-504C411,-504 417,-510 417,-516"/>
<polyline fill="none" stroke="#56a2d8" stroke-width="2" points="417,-516 417,-528 "/>
<path fill="none" stroke="#56a2d8" stroke-width="2" d="M417,-528C417,-534 411,-540 405,-540"/>
<text text-anchor="middle" x="328" y="-519.5" font-family="sans" font-size="10.00">combine_Q2_manifest_by_runID</text>
</g>
<!-- 19&#45;&gt;16 -->
<g id="edge62" class="edge"><title>19&#45;&gt;16</title>
<path fill="none" stroke="grey" stroke-width="2" d="M328,-503.831C328,-496.131 328,-486.974 328,-478.417"/>
<polygon fill="grey" stroke="grey" points="331.5,-478.413 328,-468.413 324.5,-478.413 331.5,-478.413"/>
</g>
<!-- 20&#45;&gt;19 -->
<g id="edge72" class="edge"><title>20&#45;&gt;19</title>
<path fill="none" stroke="grey" stroke-width="2" d="M328,-575.831C328,-568.131 328,-558.974 328,-550.417"/>
<polygon fill="grey" stroke="grey" points="331.5,-550.413 328,-540.413 324.5,-550.413 331.5,-550.413"/>
</g>
</g>
</svg>
